<mxfile modified="2023-11-07T20:53:29.738Z" host="app.diagrams.net" agent="Mozilla/5.0 (Windows NT 10.0; Win64; x64; rv:109.0) Gecko/20100101 Firefox/119.0" etag="R__65Zwo3ZEJXZuhKP7l" version="22.0.8" type="device">
  <diagram id="Ht1M8jgEwFfnCIfOTk4-" name="Page-1">
    <mxGraphModel dx="2488" dy="1519" grid="1" gridSize="10" guides="1" tooltips="1" connect="1" arrows="1" fold="1" page="1" pageScale="1" pageWidth="1169" pageHeight="827" math="0" shadow="0">
      <root>
        <mxCell id="0" />
        <mxCell id="1" parent="0" />
        <mxCell id="zRgOrn7Gje2fGibkuXIG-53" value="" style="rounded=0;whiteSpace=wrap;html=1;" vertex="1" parent="1">
          <mxGeometry x="240" width="760" height="840" as="geometry" />
        </mxCell>
        <mxCell id="zRgOrn7Gje2fGibkuXIG-41" value="" style="rounded=1;whiteSpace=wrap;html=1;fillColor=#E1D5E7;strokeColor=none;" vertex="1" parent="1">
          <mxGeometry x="610" y="410" width="285" height="210" as="geometry" />
        </mxCell>
        <mxCell id="zRgOrn7Gje2fGibkuXIG-40" value="" style="rounded=1;whiteSpace=wrap;html=1;strokeColor=none;fillColor=#DAE8FC;" vertex="1" parent="1">
          <mxGeometry x="365" y="640" width="230" height="130" as="geometry" />
        </mxCell>
        <mxCell id="zRgOrn7Gje2fGibkuXIG-39" value="" style="rounded=1;whiteSpace=wrap;html=1;fillColor=#F8CECC;strokeColor=none;" vertex="1" parent="1">
          <mxGeometry x="365" y="340" width="230" height="280" as="geometry" />
        </mxCell>
        <mxCell id="zRgOrn7Gje2fGibkuXIG-38" value="" style="rounded=1;whiteSpace=wrap;html=1;strokeColor=none;fillColor=#ffe6cc;" vertex="1" parent="1">
          <mxGeometry x="290" y="40" width="640" height="290" as="geometry" />
        </mxCell>
        <mxCell id="zRgOrn7Gje2fGibkuXIG-28" style="edgeStyle=orthogonalEdgeStyle;rounded=0;orthogonalLoop=1;jettySize=auto;html=1;exitX=0.25;exitY=1;exitDx=0;exitDy=0;entryX=0.5;entryY=0;entryDx=0;entryDy=0;" edge="1" parent="1" source="zRgOrn7Gje2fGibkuXIG-1" target="zRgOrn7Gje2fGibkuXIG-25">
          <mxGeometry relative="1" as="geometry" />
        </mxCell>
        <mxCell id="zRgOrn7Gje2fGibkuXIG-29" value="Subscribe" style="edgeLabel;html=1;align=center;verticalAlign=middle;resizable=0;points=[];labelBackgroundColor=#F8CECC;" vertex="1" connectable="0" parent="zRgOrn7Gje2fGibkuXIG-28">
          <mxGeometry x="-0.1432" y="1" relative="1" as="geometry">
            <mxPoint as="offset" />
          </mxGeometry>
        </mxCell>
        <mxCell id="zRgOrn7Gje2fGibkuXIG-1" value="&lt;div&gt;MQTT Broker&lt;/div&gt;" style="rounded=0;whiteSpace=wrap;html=1;fillColor=#d5e8d4;strokeColor=#82b366;" vertex="1" parent="1">
          <mxGeometry x="350" y="260" width="520" height="60" as="geometry" />
        </mxCell>
        <mxCell id="zRgOrn7Gje2fGibkuXIG-2" value="&lt;div&gt;Client node 1&lt;br&gt;&lt;/div&gt;" style="rounded=0;whiteSpace=wrap;html=1;fillColor=#d5e8d4;strokeColor=#82b366;" vertex="1" parent="1">
          <mxGeometry x="350" y="80" width="120" height="60" as="geometry" />
        </mxCell>
        <mxCell id="zRgOrn7Gje2fGibkuXIG-3" value="&lt;div&gt;Client node 2&lt;br&gt;&lt;/div&gt;" style="rounded=0;whiteSpace=wrap;html=1;fillColor=#d5e8d4;strokeColor=#82b366;" vertex="1" parent="1">
          <mxGeometry x="550" y="80" width="120" height="60" as="geometry" />
        </mxCell>
        <mxCell id="zRgOrn7Gje2fGibkuXIG-4" value="&lt;div&gt;Client node 3&lt;br&gt;&lt;/div&gt;" style="rounded=0;whiteSpace=wrap;html=1;fillColor=#d5e8d4;strokeColor=#82b366;" vertex="1" parent="1">
          <mxGeometry x="750" y="80" width="120" height="60" as="geometry" />
        </mxCell>
        <mxCell id="zRgOrn7Gje2fGibkuXIG-19" style="rounded=0;orthogonalLoop=1;jettySize=auto;html=1;exitX=0.5;exitY=1;exitDx=0;exitDy=0;entryX=0.116;entryY=-0.035;entryDx=0;entryDy=0;entryPerimeter=0;startArrow=classic;startFill=1;" edge="1" parent="1" source="zRgOrn7Gje2fGibkuXIG-2" target="zRgOrn7Gje2fGibkuXIG-1">
          <mxGeometry relative="1" as="geometry">
            <mxPoint x="290" y="220" as="targetPoint" />
            <mxPoint x="290" y="140" as="sourcePoint" />
          </mxGeometry>
        </mxCell>
        <mxCell id="zRgOrn7Gje2fGibkuXIG-22" value="Publish / subscribe" style="edgeLabel;html=1;align=center;verticalAlign=middle;resizable=0;points=[];labelBackgroundColor=#FFE6CC;" vertex="1" connectable="0" parent="zRgOrn7Gje2fGibkuXIG-19">
          <mxGeometry x="-0.0947" relative="1" as="geometry">
            <mxPoint y="6" as="offset" />
          </mxGeometry>
        </mxCell>
        <mxCell id="zRgOrn7Gje2fGibkuXIG-20" style="rounded=0;orthogonalLoop=1;jettySize=auto;html=1;exitX=0.5;exitY=1;exitDx=0;exitDy=0;entryX=0.5;entryY=0;entryDx=0;entryDy=0;startArrow=classic;startFill=1;" edge="1" parent="1" source="zRgOrn7Gje2fGibkuXIG-3" target="zRgOrn7Gje2fGibkuXIG-1">
          <mxGeometry relative="1" as="geometry">
            <mxPoint x="570" y="270" as="targetPoint" />
            <mxPoint x="570" y="152" as="sourcePoint" />
          </mxGeometry>
        </mxCell>
        <mxCell id="zRgOrn7Gje2fGibkuXIG-23" value="Publish / subscribe" style="edgeLabel;html=1;align=center;verticalAlign=middle;resizable=0;points=[];labelBackgroundColor=#FFE6CC;" vertex="1" connectable="0" parent="zRgOrn7Gje2fGibkuXIG-20">
          <mxGeometry x="-0.0045" y="-2" relative="1" as="geometry">
            <mxPoint x="2" as="offset" />
          </mxGeometry>
        </mxCell>
        <mxCell id="zRgOrn7Gje2fGibkuXIG-21" style="rounded=0;orthogonalLoop=1;jettySize=auto;html=1;exitX=0.5;exitY=1;exitDx=0;exitDy=0;entryX=0.886;entryY=-0.005;entryDx=0;entryDy=0;startArrow=classic;startFill=1;entryPerimeter=0;" edge="1" parent="1" source="zRgOrn7Gje2fGibkuXIG-4" target="zRgOrn7Gje2fGibkuXIG-1">
          <mxGeometry relative="1" as="geometry">
            <mxPoint x="710" y="280" as="targetPoint" />
            <mxPoint x="710" y="160" as="sourcePoint" />
          </mxGeometry>
        </mxCell>
        <mxCell id="zRgOrn7Gje2fGibkuXIG-24" value="Publish / subscribe" style="edgeLabel;align=center;verticalAlign=middle;resizable=0;points=[];labelBackgroundColor=#FFE6CC;html=1;" vertex="1" connectable="0" parent="zRgOrn7Gje2fGibkuXIG-21">
          <mxGeometry x="-0.0326" y="-2" relative="1" as="geometry">
            <mxPoint x="2" as="offset" />
          </mxGeometry>
        </mxCell>
        <mxCell id="zRgOrn7Gje2fGibkuXIG-31" style="edgeStyle=orthogonalEdgeStyle;rounded=0;orthogonalLoop=1;jettySize=auto;html=1;exitX=0.5;exitY=1;exitDx=0;exitDy=0;entryX=0.5;entryY=0;entryDx=0;entryDy=0;" edge="1" parent="1" source="zRgOrn7Gje2fGibkuXIG-25" target="zRgOrn7Gje2fGibkuXIG-30">
          <mxGeometry relative="1" as="geometry" />
        </mxCell>
        <mxCell id="zRgOrn7Gje2fGibkuXIG-42" value="Send data" style="edgeLabel;html=1;align=center;verticalAlign=middle;resizable=0;points=[];labelBackgroundColor=#F8CECC;" vertex="1" connectable="0" parent="zRgOrn7Gje2fGibkuXIG-31">
          <mxGeometry x="0.0103" y="1" relative="1" as="geometry">
            <mxPoint as="offset" />
          </mxGeometry>
        </mxCell>
        <mxCell id="zRgOrn7Gje2fGibkuXIG-25" value="Telegraf" style="rounded=0;whiteSpace=wrap;html=1;fillColor=#d5e8d4;strokeColor=#82b366;" vertex="1" parent="1">
          <mxGeometry x="420" y="400" width="120" height="60" as="geometry" />
        </mxCell>
        <mxCell id="zRgOrn7Gje2fGibkuXIG-34" style="edgeStyle=orthogonalEdgeStyle;rounded=0;orthogonalLoop=1;jettySize=auto;html=1;exitX=0.5;exitY=1;exitDx=0;exitDy=0;entryX=0.5;entryY=0;entryDx=0;entryDy=0;" edge="1" parent="1" source="zRgOrn7Gje2fGibkuXIG-30" target="zRgOrn7Gje2fGibkuXIG-33">
          <mxGeometry relative="1" as="geometry" />
        </mxCell>
        <mxCell id="zRgOrn7Gje2fGibkuXIG-43" value="Query data" style="edgeLabel;html=1;align=center;verticalAlign=middle;resizable=0;points=[];labelBackgroundColor=#DAE8FC;" vertex="1" connectable="0" parent="zRgOrn7Gje2fGibkuXIG-34">
          <mxGeometry x="0.5446" y="1" relative="1" as="geometry">
            <mxPoint as="offset" />
          </mxGeometry>
        </mxCell>
        <mxCell id="zRgOrn7Gje2fGibkuXIG-35" style="edgeStyle=orthogonalEdgeStyle;rounded=0;orthogonalLoop=1;jettySize=auto;html=1;exitX=1;exitY=0.5;exitDx=0;exitDy=0;entryX=0;entryY=0.5;entryDx=0;entryDy=0;" edge="1" parent="1" source="zRgOrn7Gje2fGibkuXIG-30" target="zRgOrn7Gje2fGibkuXIG-32">
          <mxGeometry relative="1" as="geometry" />
        </mxCell>
        <mxCell id="zRgOrn7Gje2fGibkuXIG-44" value="Query data" style="edgeLabel;html=1;align=center;verticalAlign=middle;resizable=0;points=[];labelBackgroundColor=#E1D5E7;" vertex="1" connectable="0" parent="zRgOrn7Gje2fGibkuXIG-35">
          <mxGeometry x="0.4846" y="-3" relative="1" as="geometry">
            <mxPoint x="-4" y="-3" as="offset" />
          </mxGeometry>
        </mxCell>
        <mxCell id="zRgOrn7Gje2fGibkuXIG-30" value="InfluxDB" style="rounded=0;whiteSpace=wrap;html=1;fillColor=#d5e8d4;strokeColor=#82b366;" vertex="1" parent="1">
          <mxGeometry x="420" y="520" width="120" height="60" as="geometry" />
        </mxCell>
        <mxCell id="zRgOrn7Gje2fGibkuXIG-32" value="Flux server" style="rounded=0;whiteSpace=wrap;html=1;fillColor=#d5e8d4;strokeColor=#82b366;" vertex="1" parent="1">
          <mxGeometry x="720" y="520" width="120" height="60" as="geometry" />
        </mxCell>
        <mxCell id="zRgOrn7Gje2fGibkuXIG-33" value="Grafana" style="rounded=0;whiteSpace=wrap;html=1;fillColor=#d5e8d4;strokeColor=#82b366;" vertex="1" parent="1">
          <mxGeometry x="420" y="680" width="120" height="60" as="geometry" />
        </mxCell>
        <mxCell id="zRgOrn7Gje2fGibkuXIG-36" style="edgeStyle=orthogonalEdgeStyle;rounded=0;orthogonalLoop=1;jettySize=auto;html=1;exitX=0.5;exitY=0;exitDx=0;exitDy=0;entryX=0.828;entryY=1.044;entryDx=0;entryDy=0;entryPerimeter=0;" edge="1" parent="1" source="zRgOrn7Gje2fGibkuXIG-32" target="zRgOrn7Gje2fGibkuXIG-1">
          <mxGeometry relative="1" as="geometry" />
        </mxCell>
        <mxCell id="zRgOrn7Gje2fGibkuXIG-37" value="Publish" style="edgeLabel;html=1;align=center;verticalAlign=middle;resizable=0;points=[];labelBackgroundColor=#E1D5E7;" vertex="1" connectable="0" parent="zRgOrn7Gje2fGibkuXIG-36">
          <mxGeometry x="0.0164" y="-1" relative="1" as="geometry">
            <mxPoint x="-2" y="50" as="offset" />
          </mxGeometry>
        </mxCell>
        <mxCell id="zRgOrn7Gje2fGibkuXIG-45" value="&lt;h1&gt;Legend&lt;br&gt;&lt;/h1&gt;" style="text;html=1;strokeColor=default;fillColor=none;spacing=5;spacingTop=-20;whiteSpace=wrap;overflow=hidden;rounded=0;" vertex="1" parent="1">
          <mxGeometry x="670" y="650" width="190" height="170" as="geometry" />
        </mxCell>
        <mxCell id="zRgOrn7Gje2fGibkuXIG-46" value="" style="rounded=0;whiteSpace=wrap;html=1;fillColor=#d5e8d4;strokeColor=#82b366;" vertex="1" parent="1">
          <mxGeometry x="680" y="690" width="40" height="20" as="geometry" />
        </mxCell>
        <mxCell id="zRgOrn7Gje2fGibkuXIG-47" value="Node" style="text;html=1;strokeColor=none;fillColor=none;align=left;verticalAlign=middle;whiteSpace=wrap;rounded=0;" vertex="1" parent="1">
          <mxGeometry x="730" y="685" width="40" height="30" as="geometry" />
        </mxCell>
        <mxCell id="zRgOrn7Gje2fGibkuXIG-48" value="" style="endArrow=classic;html=1;rounded=0;" edge="1" parent="1">
          <mxGeometry width="50" height="50" relative="1" as="geometry">
            <mxPoint x="685" y="800" as="sourcePoint" />
            <mxPoint x="715" y="770" as="targetPoint" />
          </mxGeometry>
        </mxCell>
        <mxCell id="zRgOrn7Gje2fGibkuXIG-49" value="Data flows to arrow direction" style="text;html=1;strokeColor=none;fillColor=none;align=left;verticalAlign=middle;whiteSpace=wrap;rounded=0;" vertex="1" parent="1">
          <mxGeometry x="730" y="770" width="100" height="30" as="geometry" />
        </mxCell>
        <mxCell id="zRgOrn7Gje2fGibkuXIG-50" value="" style="rounded=1;whiteSpace=wrap;html=1;fillColor=#fff2cc;strokeColor=#d6b656;" vertex="1" parent="1">
          <mxGeometry x="680" y="730" width="40" height="20" as="geometry" />
        </mxCell>
        <mxCell id="zRgOrn7Gje2fGibkuXIG-51" value="Separate area of application" style="text;html=1;strokeColor=none;fillColor=none;align=left;verticalAlign=middle;whiteSpace=wrap;rounded=0;" vertex="1" parent="1">
          <mxGeometry x="730" y="725" width="100" height="30" as="geometry" />
        </mxCell>
        <mxCell id="zRgOrn7Gje2fGibkuXIG-54" value="Architecture" style="text;html=1;strokeColor=none;fillColor=none;align=center;verticalAlign=middle;whiteSpace=wrap;rounded=0;" vertex="1" parent="1">
          <mxGeometry x="250" width="60" height="30" as="geometry" />
        </mxCell>
      </root>
    </mxGraphModel>
  </diagram>
</mxfile>
